<?xml version="1.0" standalone="no"?>
<!DOCTYPE svg PUBLIC "-//W3C//DTD SVG 20010904//EN"
 "http://www.w3.org/TR/2001/REC-SVG-20010904/DTD/svg10.dtd">
<svg version="1.0" xmlns="http://www.w3.org/2000/svg"
 width="930.000000pt" height="1080.000000pt" viewBox="0 0 930.000000 1080.000000"
 preserveAspectRatio="xMidYMid meet">

<g transform="translate(0.000000,1080.000000) scale(0.100000,-0.100000)"
fill="#000000" stroke="none">
<path d="M4485 10524 c-465 -23 -887 -104 -1300 -251 -112 -39 -316 -122 -328
-133 -10 -9 304 -134 473 -188 266 -85 529 -144 820 -184 144 -20 208 -22 500
-22 263 0 366 3 480 18 340 42 647 111 941 212 154 52 379 144 379 155 0 11
-260 115 -420 169 -328 110 -670 181 -1005 209 -138 12 -437 20 -540 15z"/>
<path d="M2499 9959 c-497 -284 -920 -646 -1276 -1093 -72 -91 -100 -133 -93
-141 16 -20 435 -229 589 -295 160 -68 312 -127 441 -172 122 -42 403 -128
406 -125 2 2 26 70 55 152 156 453 399 909 702 1317 43 58 77 110 76 115 -2 4
-80 33 -174 65 -171 57 -435 162 -544 217 l-59 30 -123 -70z"/>
<path d="M6585 9975 c-173 -84 -630 -255 -681 -255 -8 0 -14 -2 -14 -5 0 -3
38 -56 84 -117 105 -143 235 -340 321 -488 143 -246 311 -619 395 -873 29 -90
34 -97 53 -91 482 146 924 323 1285 516 72 39 132 75 132 80 0 15 -120 167
-236 298 -253 288 -575 568 -889 773 -104 68 -344 208 -354 206 -3 0 -46 -20
-96 -44z"/>
<path d="M3528 9548 c-310 -401 -550 -840 -724 -1326 -26 -73 -44 -135 -41
-138 10 -10 236 -62 431 -99 389 -73 775 -116 1174 -131 l182 -7 0 845 0 845
-46 7 c-26 3 -69 6 -96 6 -129 0 -514 54 -707 99 l-81 18 -92 -119z"/>
<path d="M5520 9629 c-152 -32 -395 -65 -545 -74 -55 -3 -128 -8 -162 -11
l-63 -6 0 -844 0 -844 68 0 c307 1 845 59 1246 135 186 35 452 98 463 108 3 4
-11 55 -32 114 -92 260 -234 569 -368 803 -131 229 -425 643 -458 646 -8 1
-75 -11 -149 -27z"/>
<path d="M965 8507 c-424 -674 -657 -1415 -682 -2169 l-6 -188 1053 0 1053 0
-7 48 c-17 134 -28 448 -22 642 9 336 49 645 122 949 19 79 34 146 34 150 0 4
-24 13 -52 20 -94 24 -459 148 -608 206 -260 103 -519 224 -755 354 l-91 50
-39 -62z"/>
<path d="M8085 8474 c-379 -198 -853 -389 -1223 -494 -74 -21 -83 -27 -79 -45
3 -11 19 -78 36 -150 77 -326 111 -604 118 -961 5 -245 -7 -583 -24 -651 l-5
-23 1057 0 1057 0 -6 138 c-29 611 -143 1108 -374 1634 -103 235 -332 641
-363 645 -8 1 -95 -41 -194 -93z"/>
<path d="M6470 7874 c-446 -113 -1173 -214 -1543 -214 -46 0 -105 -3 -131 -6
l-46 -7 0 -748 0 -749 984 0 983 0 7 68 c38 400 27 836 -30 1189 -15 97 -58
311 -73 372 -5 20 -15 55 -21 79 -6 23 -16 42 -23 41 -7 -1 -55 -12 -107 -25z"/>
<path d="M2691 7853 c-89 -334 -131 -645 -138 -1031 -5 -263 7 -598 23 -654 5
-17 61 -18 990 -18 l984 0 0 749 0 748 -46 7 c-26 3 -90 6 -143 6 -113 0 -436
23 -624 45 -330 39 -636 92 -937 164 -47 12 -88 21 -92 21 -4 0 -12 -17 -17
-37z"/>
<path d="M290 5855 c0 -16 175 -217 252 -290 333 -314 791 -549 1342 -690 157
-40 167 -44 131 -51 -40 -7 -360 1 -453 12 l-52 7 26 -69 c119 -321 318 -670
540 -949 107 -134 385 -413 514 -516 518 -412 1088 -649 1732 -718 54 -6 126
-11 162 -11 l65 0 3 553 3 552 28 80 c136 386 583 644 1252 721 90 10 195 15
310 12 95 -2 171 1 168 5 -3 5 -29 24 -57 42 -89 57 -135 65 -368 65 -237 0
-218 -9 -193 95 47 195 -10 273 -215 295 -52 5 -283 10 -512 10 l-418 0 0 425
0 425 -2130 0 c-1172 0 -2130 -2 -2130 -5z m5227 -1006 c30 -29 38 -71 19
-108 -20 -37 -44 -51 -88 -51 -44 0 -74 22 -88 64 -30 93 84 163 157 95z"/>
<path d="M5892 5835 c-388 -80 -805 -274 -1010 -469 -64 -61 -132 -143 -132
-160 0 -2 172 -6 383 -8 334 -4 389 -7 437 -22 75 -25 143 -60 184 -97 47 -41
94 -137 102 -208 l6 -58 117 -6 c132 -7 197 -24 294 -74 82 -43 187 -146 238
-232 34 -58 107 -276 96 -287 -3 -3 -54 10 -114 29 -157 51 -234 62 -433 61
-543 -2 -1049 -198 -1232 -478 -79 -123 -78 -108 -78 -813 l0 -625 63 6 c34 3
100 8 147 11 122 9 346 42 480 71 1294 284 2344 1221 2771 2472 86 254 156
575 184 850 l6 62 -1198 -1 -1198 0 -113 -24z"/>
<path d="M380 5217 c0 -27 72 -292 113 -418 134 -405 345 -823 586 -1162 495
-694 1149 -1211 1941 -1536 691 -284 1096 -615 1344 -1101 62 -120 81 -166
142 -335 l43 -120 -2 765 -2 765 -55 2 c-671 30 -1346 252 -1910 629 -631 421
-1133 1026 -1430 1724 -59 139 -180 483 -180 512 0 10 -39 29 -107 54 -123 45
-334 145 -417 198 -63 40 -66 41 -66 23z"/>
</g>
</svg>
